<?xml version="1.0" encoding="utf-8"?>
<!-- Svg Vector Icons : http://www.onlinewebfonts.com/icon -->
<!DOCTYPE svg PUBLIC "-//W3C//DTD SVG 1.1//EN" "http://www.w3.org/Graphics/SVG/1.1/DTD/svg11.dtd">
<svg version="1.1" xmlns="http://www.w3.org/2000/svg" xmlns:xlink="http://www.w3.org/1999/xlink" x="0px" y="0px" viewBox="0 0 1000 1000" enable-background="new 0 0 1000 1000" xml:space="preserve">
<metadata> Svg Vector Icons : http://www.onlinewebfonts.com/icon </metadata>
<g><path d="M500,10C229.4,10,10,229.4,10,500c0,270.6,219.4,490,490,490c270.6,0,490-219.4,490-490S770.6,10,500,10z M496.2,255c70,0,126.7,56.7,126.7,126.7s-56.7,126.7-126.7,126.7s-126.7-56.7-126.7-126.7C369.5,311.7,426.3,255,496.2,255z M629.1,745h-266c-25.8,0-78.2-21.1-78.2-46.8v0c0-85.8,70.4-156,156.4-156h109.5c86,0,156.4,70.2,156.4,156C707.4,723.9,654.9,745,629.1,745z"/></g>
</svg>